<svg width="996" height="59" viewBox="0 0 996 59" fill="none" xmlns="http://www.w3.org/2000/svg">
<path d="M-0.000116825 0.000778198H5.43988V44.8008H-0.000116825V0.000778198ZM23.0399 0.000778198H29.7599L10.3679 20.9928L30.7199 44.8008H23.9999L3.77588 21.1208L23.0399 0.000778198ZM61.6594 15.3608V44.8008H56.5394V20.1608H41.4994V34.5608C41.4994 36.8648 41.1367 38.7848 40.4114 40.3208C39.7287 41.8141 38.662 42.9448 37.2114 43.7128C35.7607 44.4381 33.926 44.8008 31.7074 44.8008V40.1288C32.9874 40.1288 34.0754 39.7234 34.9714 38.9128C35.91 38.1021 36.3794 36.6514 36.3794 34.5608V15.3608H61.6594ZM96.1949 20.4808L71.8749 47.0408L72.1949 39.6808L96.5149 13.1208L96.1949 20.4808ZM76.9949 15.3608V40.0008L71.8749 47.0408V15.3608H76.9949ZM96.5149 13.1208V44.8008H91.3949V20.1608L96.5149 13.1208ZM109.438 31.6808V26.8808H131.198V31.6808H109.438ZM127.87 15.3608H132.99V44.8008H127.87V15.3608ZM106.43 15.3608H111.55V44.8008H106.43V15.3608ZM167.257 20.4808L142.937 47.0408L143.257 39.6808L167.577 13.1208L167.257 20.4808ZM148.057 15.3608V40.0008L142.937 47.0408V15.3608H148.057ZM167.577 13.1208V44.8008H162.457V20.1608L167.577 13.1208ZM187.412 35.8408V31.0408H197.46V35.8408H187.412ZM193.812 15.3608H198.932V44.8008H193.812V15.3608ZM181.012 15.3608V23.8088C181.012 25.5154 181.204 26.9021 181.588 27.9688C181.972 29.0354 182.634 29.8248 183.572 30.3368C184.511 30.8061 185.791 31.0408 187.412 31.0408V35.8408C184.468 35.8408 182.143 35.4354 180.436 34.6248C178.772 33.8141 177.599 32.5341 176.916 30.7848C176.234 28.9928 175.892 26.6674 175.892 23.8088V15.3608H181.012ZM209.259 31.3608V27.0088H228.907C228.736 25.4728 228.31 24.1288 227.627 22.9768C226.987 21.7821 226.07 20.8648 224.875 20.2248C223.723 19.5421 222.294 19.2008 220.587 19.2008C218.88 19.2008 217.323 19.5634 215.915 20.2888C214.507 21.0141 213.376 22.0594 212.523 23.4248C211.712 24.7474 211.307 26.3261 211.307 28.1608L211.179 30.0808C211.179 32.3421 211.563 34.2621 212.331 35.8408C213.099 37.4194 214.187 38.6141 215.595 39.4248C217.003 40.2354 218.667 40.6408 220.587 40.6408C222.038 40.6408 223.318 40.4274 224.427 40.0008C225.579 39.5314 226.603 38.9128 227.499 38.1448C228.395 37.3341 229.163 36.3954 229.803 35.3288L233.963 37.9528C232.982 39.4461 231.894 40.7688 230.699 41.9208C229.504 43.0301 228.054 43.9048 226.347 44.5448C224.64 45.1421 222.507 45.4408 219.947 45.4408C217.302 45.4408 214.912 44.7794 212.779 43.4568C210.688 42.1341 209.024 40.3208 207.787 38.0168C206.592 35.6701 205.995 33.0248 205.995 30.0808C205.995 29.5261 206.016 28.9928 206.059 28.4808C206.102 27.9688 206.166 27.4568 206.251 26.9448C206.678 24.5128 207.531 22.3794 208.811 20.5448C210.091 18.7101 211.734 17.2808 213.739 16.2568C215.787 15.2328 218.07 14.7208 220.587 14.7208C223.36 14.7208 225.792 15.3394 227.883 16.5768C229.974 17.8141 231.595 19.5634 232.747 21.8248C233.899 24.0434 234.475 26.7101 234.475 29.8248C234.475 30.0808 234.475 30.3368 234.475 30.5928C234.475 30.8488 234.454 31.1048 234.411 31.3608H209.259ZM243.796 30.0808C243.796 32.1288 244.223 33.9421 245.076 35.5208C245.972 37.0994 247.167 38.3581 248.66 39.2968C250.196 40.1928 251.924 40.6408 253.844 40.6408C255.423 40.6408 256.895 40.4061 258.26 39.9368C259.668 39.4248 260.884 38.7634 261.908 37.9528C262.932 37.0994 263.658 36.2034 264.084 35.2648V41.6648C263.06 42.8594 261.588 43.7981 259.668 44.4808C257.791 45.1208 255.85 45.4408 253.844 45.4408C250.986 45.4408 248.404 44.7794 246.1 43.4568C243.796 42.1341 241.962 40.3208 240.596 38.0168C239.274 35.6701 238.612 33.0248 238.612 30.0808C238.612 27.0941 239.274 24.4488 240.596 22.1448C241.962 19.8408 243.796 18.0274 246.1 16.7048C248.404 15.3821 250.986 14.7208 253.844 14.7208C255.85 14.7208 257.791 15.0621 259.668 15.7448C261.588 16.3848 263.06 17.3021 264.084 18.4968V24.8968C263.658 23.9154 262.932 23.0194 261.908 22.2088C260.884 21.3981 259.668 20.7581 258.26 20.2888C256.895 19.7768 255.423 19.5208 253.844 19.5208C251.924 19.5208 250.196 19.9688 248.66 20.8648C247.167 21.7608 245.972 23.0194 245.076 24.6408C244.223 26.2194 243.796 28.0328 243.796 30.0808ZM271.735 15.3608H276.855V44.8008H271.735V15.3608ZM287.735 15.3608H294.135L281.335 27.5208L295.415 44.8008H289.015L274.935 27.5208L287.735 15.3608ZM324.882 20.4808L300.562 47.0408L300.882 39.6808L325.202 13.1208L324.882 20.4808ZM305.682 15.3608V40.0008L300.562 47.0408V15.3608H305.682ZM325.202 13.1208V44.8008H320.082V20.1608L325.202 13.1208ZM359.757 20.4808L335.437 47.0408L335.757 39.6808L360.077 13.1208L359.757 20.4808ZM340.557 15.3608V40.0008L335.437 47.0408V15.3608H340.557ZM360.077 13.1208V44.8008H354.957V20.1608L360.077 13.1208ZM337.805 0.320778H342.349C342.349 0.875445 342.499 1.53678 342.797 2.30478C343.096 3.03011 343.651 3.69145 344.461 4.28878C345.272 4.84345 346.424 5.12078 347.917 5.12078C349.411 5.12078 350.563 4.84345 351.373 4.28878C352.184 3.69145 352.739 3.03011 353.037 2.30478C353.336 1.53678 353.485 0.875445 353.485 0.320778H358.029C358.029 1.77145 357.645 3.20078 356.877 4.60878C356.152 5.97411 355.043 7.10478 353.549 8.00078C352.056 8.85411 350.179 9.28078 347.917 9.28078C345.699 9.28078 343.821 8.85411 342.285 8.00078C340.792 7.10478 339.661 5.97411 338.893 4.60878C338.168 3.20078 337.805 1.77145 337.805 0.320778ZM413.18 15.3608V44.8008H408.06V20.1608H394.3V44.8008H389.18V15.3608H413.18ZM427.605 58.8808H422.485V15.3608H427.605V58.8808ZM452.245 30.0808C452.245 33.2381 451.584 35.9688 450.261 38.2728C448.938 40.5768 447.168 42.3474 444.949 43.5848C442.773 44.8221 440.341 45.4408 437.653 45.4408C435.221 45.4408 433.066 44.8221 431.189 43.5848C429.354 42.3474 427.904 40.5768 426.837 38.2728C425.813 35.9688 425.301 33.2381 425.301 30.0808C425.301 26.8808 425.813 24.1501 426.837 21.8888C427.904 19.5848 429.354 17.8141 431.189 16.5768C433.066 15.3394 435.221 14.7208 437.653 14.7208C440.341 14.7208 442.773 15.3394 444.949 16.5768C447.168 17.8141 448.938 19.5848 450.261 21.8888C451.584 24.1501 452.245 26.8808 452.245 30.0808ZM447.061 30.0808C447.061 27.8194 446.592 25.8994 445.653 24.3208C444.757 22.7421 443.541 21.5474 442.005 20.7368C440.512 19.9261 438.848 19.5208 437.013 19.5208C435.52 19.5208 434.048 19.9261 432.597 20.7368C431.146 21.5474 429.952 22.7421 429.013 24.3208C428.074 25.8994 427.605 27.8194 427.605 30.0808C427.605 32.3421 428.074 34.2621 429.013 35.8408C429.952 37.4194 431.146 38.6141 432.597 39.4248C434.048 40.2354 435.52 40.6408 437.013 40.6408C438.848 40.6408 440.512 40.2354 442.005 39.4248C443.541 38.6141 444.757 37.4194 445.653 35.8408C446.592 34.2621 447.061 32.3421 447.061 30.0808ZM456.745 30.0808C456.745 27.0941 457.406 24.4488 458.729 22.1448C460.094 19.8408 461.929 18.0274 464.233 16.7048C466.537 15.3821 469.118 14.7208 471.977 14.7208C474.878 14.7208 477.46 15.3821 479.721 16.7048C482.025 18.0274 483.838 19.8408 485.161 22.1448C486.526 24.4488 487.209 27.0941 487.209 30.0808C487.209 33.0248 486.526 35.6701 485.161 38.0168C483.838 40.3208 482.025 42.1341 479.721 43.4568C477.46 44.7794 474.878 45.4408 471.977 45.4408C469.118 45.4408 466.537 44.7794 464.233 43.4568C461.929 42.1341 460.094 40.3208 458.729 38.0168C457.406 35.6701 456.745 33.0248 456.745 30.0808ZM461.929 30.0808C461.929 32.1288 462.356 33.9421 463.209 35.5208C464.105 37.0994 465.3 38.3581 466.793 39.2968C468.329 40.1928 470.057 40.6408 471.977 40.6408C473.897 40.6408 475.604 40.1928 477.097 39.2968C478.633 38.3581 479.828 37.0994 480.681 35.5208C481.577 33.9421 482.025 32.1288 482.025 30.0808C482.025 28.0328 481.577 26.2194 480.681 24.6408C479.828 23.0194 478.633 21.7608 477.097 20.8648C475.604 19.9688 473.897 19.5208 471.977 19.5208C470.057 19.5208 468.329 19.9688 466.793 20.8648C465.3 21.7608 464.105 23.0194 463.209 24.6408C462.356 26.2194 461.929 28.0328 461.929 30.0808ZM489.762 15.3608H507.042V20.1608H489.762V15.3608ZM495.842 16.6408H500.962V44.8008H495.842V16.6408ZM508.682 30.0808C508.682 27.0941 509.344 24.4488 510.666 22.1448C512.032 19.8408 513.866 18.0274 516.17 16.7048C518.474 15.3821 521.056 14.7208 523.914 14.7208C526.816 14.7208 529.397 15.3821 531.658 16.7048C533.962 18.0274 535.776 19.8408 537.098 22.1448C538.464 24.4488 539.146 27.0941 539.146 30.0808C539.146 33.0248 538.464 35.6701 537.098 38.0168C535.776 40.3208 533.962 42.1341 531.658 43.4568C529.397 44.7794 526.816 45.4408 523.914 45.4408C521.056 45.4408 518.474 44.7794 516.17 43.4568C513.866 42.1341 512.032 40.3208 510.666 38.0168C509.344 35.6701 508.682 33.0248 508.682 30.0808ZM513.866 30.0808C513.866 32.1288 514.293 33.9421 515.146 35.5208C516.042 37.0994 517.237 38.3581 518.73 39.2968C520.266 40.1928 521.994 40.6408 523.914 40.6408C525.834 40.6408 527.541 40.1928 529.034 39.2968C530.57 38.3581 531.765 37.0994 532.618 35.5208C533.514 33.9421 533.962 32.1288 533.962 30.0808C533.962 28.0328 533.514 26.2194 532.618 24.6408C531.765 23.0194 530.57 21.7608 529.034 20.8648C527.541 19.9688 525.834 19.5208 523.914 19.5208C521.994 19.5208 520.266 19.9688 518.73 20.8648C517.237 21.7608 516.042 23.0194 515.146 24.6408C514.293 26.2194 513.866 28.0328 513.866 30.0808ZM545.86 15.3608H550.98V44.8008H545.86V15.3608ZM561.86 15.3608H568.26L555.46 27.5208L569.54 44.8008H563.14L549.06 27.5208L561.86 15.3608ZM570.87 30.0808C570.87 27.0941 571.531 24.4488 572.854 22.1448C574.219 19.8408 576.054 18.0274 578.358 16.7048C580.662 15.3821 583.243 14.7208 586.102 14.7208C589.003 14.7208 591.585 15.3821 593.846 16.7048C596.15 18.0274 597.963 19.8408 599.286 22.1448C600.651 24.4488 601.334 27.0941 601.334 30.0808C601.334 33.0248 600.651 35.6701 599.286 38.0168C597.963 40.3208 596.15 42.1341 593.846 43.4568C591.585 44.7794 589.003 45.4408 586.102 45.4408C583.243 45.4408 580.662 44.7794 578.358 43.4568C576.054 42.1341 574.219 40.3208 572.854 38.0168C571.531 35.6701 570.87 33.0248 570.87 30.0808ZM576.054 30.0808C576.054 32.1288 576.481 33.9421 577.334 35.5208C578.23 37.0994 579.425 38.3581 580.918 39.2968C582.454 40.1928 584.182 40.6408 586.102 40.6408C588.022 40.6408 589.729 40.1928 591.222 39.2968C592.758 38.3581 593.953 37.0994 594.806 35.5208C595.702 33.9421 596.15 32.1288 596.15 30.0808C596.15 28.0328 595.702 26.2194 594.806 24.6408C593.953 23.0194 592.758 21.7608 591.222 20.8648C589.729 19.9688 588.022 19.5208 586.102 19.5208C584.182 19.5208 582.454 19.9688 580.918 20.8648C579.425 21.7608 578.23 23.0194 577.334 24.6408C576.481 26.2194 576.054 28.0328 576.054 30.0808ZM634.159 15.3608V44.8008H629.039V20.1608H613.999V34.5608C613.999 36.8648 613.637 38.7848 612.911 40.3208C612.229 41.8141 611.162 42.9448 609.711 43.7128C608.261 44.4381 606.426 44.8008 604.207 44.8008V40.1288C605.487 40.1288 606.575 39.7234 607.471 38.9128C608.41 38.1021 608.879 36.6514 608.879 34.5608V15.3608H634.159ZM659.082 5.12078V0.000778198H687.562V5.12078H676.042V44.8008H670.602V5.12078H659.082ZM688.921 36.1608C688.921 37.1848 689.199 38.0594 689.753 38.7848C690.308 39.4674 691.055 40.0008 691.993 40.3848C692.932 40.7261 693.977 40.8968 695.129 40.8968C696.836 40.8968 698.351 40.6408 699.673 40.1288C700.996 39.6168 702.02 38.8061 702.745 37.6968C703.513 36.5874 703.897 35.1154 703.897 33.2808L704.921 36.4808C704.921 38.3581 704.409 39.9794 703.385 41.3448C702.404 42.6674 701.081 43.6914 699.417 44.4168C697.753 45.0994 695.897 45.4408 693.849 45.4408C692.015 45.4408 690.329 45.0994 688.793 44.4168C687.257 43.7341 686.02 42.7314 685.081 41.4088C684.185 40.0434 683.737 38.3581 683.737 36.3528C683.737 34.2621 684.249 32.4914 685.273 31.0408C686.297 29.5901 687.748 28.4808 689.625 27.7128C691.503 26.9021 693.721 26.4968 696.281 26.4968C698.159 26.4968 699.759 26.7528 701.081 27.2648C702.447 27.7341 703.535 28.2888 704.345 28.9288C705.156 29.5261 705.711 30.0168 706.009 30.4008V33.4088C704.559 32.3848 703.087 31.6381 701.593 31.1688C700.1 30.6568 698.415 30.4008 696.537 30.4008C694.831 30.4008 693.401 30.6354 692.249 31.1048C691.14 31.5741 690.308 32.2354 689.753 33.0888C689.199 33.9421 688.921 34.9661 688.921 36.1608ZM688.921 22.2728L686.425 18.3688C687.535 17.5581 689.028 16.7474 690.905 15.9368C692.783 15.1261 695.044 14.7208 697.689 14.7208C699.951 14.7208 701.913 15.0834 703.577 15.8088C705.284 16.4914 706.607 17.4941 707.545 18.8168C708.527 20.1394 709.017 21.7608 709.017 23.6808V44.8008H703.897V23.6808C703.897 22.1874 703.257 21.0781 701.977 20.3528C700.74 19.5848 699.311 19.2008 697.689 19.2008C696.281 19.2008 695.001 19.3928 693.849 19.7768C692.697 20.1181 691.695 20.5448 690.841 21.0568C690.031 21.5261 689.391 21.9314 688.921 22.2728ZM722.48 58.8808H717.36V15.3608H722.48V58.8808ZM747.12 30.0808C747.12 33.2381 746.459 35.9688 745.136 38.2728C743.813 40.5768 742.043 42.3474 739.824 43.5848C737.648 44.8221 735.216 45.4408 732.528 45.4408C730.096 45.4408 727.941 44.8221 726.064 43.5848C724.229 42.3474 722.779 40.5768 721.712 38.2728C720.688 35.9688 720.176 33.2381 720.176 30.0808C720.176 26.8808 720.688 24.1501 721.712 21.8888C722.779 19.5848 724.229 17.8141 726.064 16.5768C727.941 15.3394 730.096 14.7208 732.528 14.7208C735.216 14.7208 737.648 15.3394 739.824 16.5768C742.043 17.8141 743.813 19.5848 745.136 21.8888C746.459 24.1501 747.12 26.8808 747.12 30.0808ZM741.936 30.0808C741.936 27.8194 741.467 25.8994 740.528 24.3208C739.632 22.7421 738.416 21.5474 736.88 20.7368C735.387 19.9261 733.723 19.5208 731.888 19.5208C730.395 19.5208 728.923 19.9261 727.472 20.7368C726.021 21.5474 724.827 22.7421 723.888 24.3208C722.949 25.8994 722.48 27.8194 722.48 30.0808C722.48 32.3421 722.949 34.2621 723.888 35.8408C724.827 37.4194 726.021 38.6141 727.472 39.4248C728.923 40.2354 730.395 40.6408 731.888 40.6408C733.723 40.6408 735.387 40.2354 736.88 39.4248C738.416 38.6141 739.632 37.4194 740.528 35.8408C741.467 34.2621 741.936 32.3421 741.936 30.0808ZM757.188 31.6808V26.8808H778.948V31.6808H757.188ZM775.62 15.3608H780.74V44.8008H775.62V15.3608ZM754.18 15.3608H759.3V44.8008H754.18V15.3608ZM787.807 30.0808C787.807 27.0941 788.469 24.4488 789.791 22.1448C791.157 19.8408 792.991 18.0274 795.295 16.7048C797.599 15.3821 800.181 14.7208 803.039 14.7208C805.941 14.7208 808.522 15.3821 810.783 16.7048C813.087 18.0274 814.901 19.8408 816.223 22.1448C817.589 24.4488 818.271 27.0941 818.271 30.0808C818.271 33.0248 817.589 35.6701 816.223 38.0168C814.901 40.3208 813.087 42.1341 810.783 43.4568C808.522 44.7794 805.941 45.4408 803.039 45.4408C800.181 45.4408 797.599 44.7794 795.295 43.4568C792.991 42.1341 791.157 40.3208 789.791 38.0168C788.469 35.6701 787.807 33.0248 787.807 30.0808ZM792.991 30.0808C792.991 32.1288 793.418 33.9421 794.271 35.5208C795.167 37.0994 796.362 38.3581 797.855 39.2968C799.391 40.1928 801.119 40.6408 803.039 40.6408C804.959 40.6408 806.666 40.1928 808.159 39.2968C809.695 38.3581 810.89 37.0994 811.743 35.5208C812.639 33.9421 813.087 32.1288 813.087 30.0808C813.087 28.0328 812.639 26.2194 811.743 24.6408C810.89 23.0194 809.695 21.7608 808.159 20.8648C806.666 19.9688 804.959 19.5208 803.039 19.5208C801.119 19.5208 799.391 19.9688 797.855 20.8648C796.362 21.7608 795.167 23.0194 794.271 24.6408C793.418 26.2194 792.991 28.0328 792.991 30.0808ZM828.313 29.4408H836.825C838.873 29.4408 840.708 29.6541 842.329 30.0808C843.95 30.5074 845.23 31.2541 846.169 32.3208C847.108 33.3874 847.577 34.8808 847.577 36.8008C847.577 39.0194 846.83 40.9181 845.337 42.4968C843.886 44.0328 841.476 44.8008 838.105 44.8008H828.313V40.3208H836.825C838.745 40.3208 840.153 39.9154 841.049 39.1048C841.988 38.2941 842.457 37.3128 842.457 36.1608C842.457 35.5634 842.329 35.0301 842.073 34.5608C841.86 34.0914 841.518 33.6648 841.049 33.2808C840.622 32.8968 840.046 32.6194 839.321 32.4488C838.638 32.2354 837.806 32.1288 836.825 32.1288H828.313V29.4408ZM828.313 30.7208V27.7128H836.185C836.953 27.7128 837.636 27.6274 838.233 27.4568C838.873 27.2434 839.406 26.9448 839.833 26.5608C840.26 26.1768 840.58 25.7501 840.793 25.2808C841.049 24.7688 841.177 24.2354 841.177 23.6808C841.177 22.5288 840.729 21.6114 839.833 20.9288C838.937 20.2034 837.721 19.8408 836.185 19.8408H828.313V15.3608H836.185C838.02 15.3608 839.684 15.6381 841.177 16.1928C842.713 16.7048 843.95 17.5581 844.889 18.7528C845.828 19.9048 846.297 21.4408 846.297 23.3608C846.297 25.0248 845.828 26.4114 844.889 27.5208C843.95 28.5874 842.713 29.3981 841.177 29.9528C839.684 30.4648 838.02 30.7208 836.185 30.7208H828.313ZM825.305 15.3608H830.425V44.8008H825.305V15.3608ZM856.609 30.0808C856.609 32.1288 857.036 33.9421 857.889 35.5208C858.785 37.0994 859.98 38.3581 861.473 39.2968C863.009 40.1928 864.737 40.6408 866.657 40.6408C868.236 40.6408 869.708 40.4061 871.073 39.9368C872.481 39.4248 873.697 38.7634 874.721 37.9528C875.745 37.0994 876.47 36.2034 876.897 35.2648V41.6648C875.873 42.8594 874.401 43.7981 872.481 44.4808C870.604 45.1208 868.662 45.4408 866.657 45.4408C863.798 45.4408 861.217 44.7794 858.913 43.4568C856.609 42.1341 854.774 40.3208 853.409 38.0168C852.086 35.6701 851.425 33.0248 851.425 30.0808C851.425 27.0941 852.086 24.4488 853.409 22.1448C854.774 19.8408 856.609 18.0274 858.913 16.7048C861.217 15.3821 863.798 14.7208 866.657 14.7208C868.662 14.7208 870.604 15.0621 872.481 15.7448C874.401 16.3848 875.873 17.3021 876.897 18.4968V24.8968C876.47 23.9154 875.745 23.0194 874.721 22.2088C873.697 21.3981 872.481 20.7581 871.073 20.2888C869.708 19.7768 868.236 19.5208 866.657 19.5208C864.737 19.5208 863.009 19.9688 861.473 20.8648C859.98 21.7608 858.785 23.0194 857.889 24.6408C857.036 26.2194 856.609 28.0328 856.609 30.0808ZM884.547 15.3608H889.667V44.8008H884.547V15.3608ZM900.547 15.3608H906.947L894.147 27.5208L908.227 44.8008H901.827L887.747 27.5208L900.547 15.3608ZM909.557 30.0808C909.557 27.0941 910.219 24.4488 911.541 22.1448C912.907 19.8408 914.741 18.0274 917.045 16.7048C919.349 15.3821 921.931 14.7208 924.789 14.7208C927.691 14.7208 930.272 15.3821 932.533 16.7048C934.837 18.0274 936.651 19.8408 937.973 22.1448C939.339 24.4488 940.021 27.0941 940.021 30.0808C940.021 33.0248 939.339 35.6701 937.973 38.0168C936.651 40.3208 934.837 42.1341 932.533 43.4568C930.272 44.7794 927.691 45.4408 924.789 45.4408C921.931 45.4408 919.349 44.7794 917.045 43.4568C914.741 42.1341 912.907 40.3208 911.541 38.0168C910.219 35.6701 909.557 33.0248 909.557 30.0808ZM914.741 30.0808C914.741 32.1288 915.168 33.9421 916.021 35.5208C916.917 37.0994 918.112 38.3581 919.605 39.2968C921.141 40.1928 922.869 40.6408 924.789 40.6408C926.709 40.6408 928.416 40.1928 929.909 39.2968C931.445 38.3581 932.64 37.0994 933.493 35.5208C934.389 33.9421 934.837 32.1288 934.837 30.0808C934.837 28.0328 934.389 26.2194 933.493 24.6408C932.64 23.0194 931.445 21.7608 929.909 20.8648C928.416 19.9688 926.709 19.5208 924.789 19.5208C922.869 19.5208 921.141 19.9688 919.605 20.8648C918.112 21.7608 916.917 23.0194 916.021 24.6408C915.168 26.2194 914.741 28.0328 914.741 30.0808ZM947.375 15.3608H963.055V20.1608H952.495V44.8008H947.375V15.3608ZM964.682 30.0808C964.682 27.0941 965.344 24.4488 966.666 22.1448C968.032 19.8408 969.866 18.0274 972.17 16.7048C974.474 15.3821 977.056 14.7208 979.914 14.7208C982.816 14.7208 985.397 15.3821 987.658 16.7048C989.962 18.0274 991.776 19.8408 993.098 22.1448C994.464 24.4488 995.146 27.0941 995.146 30.0808C995.146 33.0248 994.464 35.6701 993.098 38.0168C991.776 40.3208 989.962 42.1341 987.658 43.4568C985.397 44.7794 982.816 45.4408 979.914 45.4408C977.056 45.4408 974.474 44.7794 972.17 43.4568C969.866 42.1341 968.032 40.3208 966.666 38.0168C965.344 35.6701 964.682 33.0248 964.682 30.0808ZM969.866 30.0808C969.866 32.1288 970.293 33.9421 971.146 35.5208C972.042 37.0994 973.237 38.3581 974.73 39.2968C976.266 40.1928 977.994 40.6408 979.914 40.6408C981.834 40.6408 983.541 40.1928 985.034 39.2968C986.57 38.3581 987.765 37.0994 988.618 35.5208C989.514 33.9421 989.962 32.1288 989.962 30.0808C989.962 28.0328 989.514 26.2194 988.618 24.6408C987.765 23.0194 986.57 21.7608 985.034 20.8648C983.541 19.9688 981.834 19.5208 979.914 19.5208C977.994 19.5208 976.266 19.9688 974.73 20.8648C973.237 21.7608 972.042 23.0194 971.146 24.6408C970.293 26.2194 969.866 28.0328 969.866 30.0808Z" fill="url(#paint0_linear_3107_55)"/>
<defs>
<linearGradient id="paint0_linear_3107_55" x1="496.13" y1="58.8008" x2="496.56" y2="-26.5842" gradientUnits="userSpaceOnUse">
<stop/>
<stop offset="0.807692" stop-color="#3B3B3B"/>
</linearGradient>
</defs>
</svg>
