<svg width="240" height="22" viewBox="0 0 240 22" fill="none" xmlns="http://www.w3.org/2000/svg">
<path d="M0.385753 0.248H10.8018V17H8.78575V2H2.40175V17H0.385753V0.248ZM12.6644 4.616H14.5844V6.632H14.6804C15.4804 5.096 16.7524 4.328 18.4964 4.328C20.0164 4.328 21.2004 4.896 22.0484 6.032C22.9124 7.168 23.3444 8.76 23.3444 10.808C23.3444 12.856 22.9124 14.448 22.0484 15.584C21.2004 16.72 20.0164 17.288 18.4964 17.288C16.7524 17.288 15.4804 16.52 14.6804 14.984H14.5844V21.8H12.6644V4.616ZM17.7524 15.584C18.8724 15.584 19.7364 15.248 20.3444 14.576C20.9684 13.888 21.2804 12.984 21.2804 11.864V9.752C21.2804 8.632 20.9684 7.736 20.3444 7.064C19.7364 6.376 18.8724 6.032 17.7524 6.032C17.3204 6.032 16.9124 6.088 16.5284 6.2C16.1444 6.312 15.8084 6.48 15.5204 6.704C15.2324 6.912 15.0004 7.176 14.8244 7.496C14.6644 7.8 14.5844 8.16 14.5844 8.576V13.04C14.5844 13.456 14.6644 13.824 14.8244 14.144C15.0004 14.448 15.2324 14.712 15.5204 14.936C15.8084 15.144 16.1444 15.304 16.5284 15.416C16.9124 15.528 17.3204 15.584 17.7524 15.584ZM29.575 17.288C28.711 17.288 27.927 17.136 27.223 16.832C26.535 16.528 25.943 16.096 25.447 15.536C24.967 14.96 24.599 14.28 24.343 13.496C24.087 12.696 23.959 11.8 23.959 10.808C23.959 9.832 24.087 8.944 24.343 8.144C24.599 7.344 24.967 6.664 25.447 6.104C25.943 5.528 26.535 5.088 27.223 4.784C27.927 4.48 28.711 4.328 29.575 4.328C30.439 4.328 31.215 4.48 31.903 4.784C32.607 5.088 33.199 5.528 33.679 6.104C34.175 6.664 34.551 7.344 34.807 8.144C35.063 8.944 35.191 9.832 35.191 10.808C35.191 11.8 35.063 12.696 34.807 13.496C34.551 14.28 34.175 14.96 33.679 15.536C33.199 16.096 32.607 16.528 31.903 16.832C31.215 17.136 30.439 17.288 29.575 17.288ZM29.575 15.632C30.647 15.632 31.511 15.312 32.167 14.672C32.823 14.032 33.151 13.04 33.151 11.696V9.92C33.151 8.576 32.823 7.584 32.167 6.944C31.511 6.304 30.647 5.984 29.575 5.984C28.503 5.984 27.639 6.304 26.983 6.944C26.327 7.584 25.999 8.576 25.999 9.92V11.696C25.999 13.04 26.327 14.032 26.983 14.672C27.639 15.312 28.503 15.632 29.575 15.632ZM40.6056 6.248H36.0456V4.616H47.0856V6.248H42.5256V17H40.6056V6.248ZM53.5563 17.288C52.6923 17.288 51.9083 17.136 51.2043 16.832C50.5163 16.528 49.9243 16.096 49.4283 15.536C48.9483 14.96 48.5803 14.28 48.3243 13.496C48.0683 12.696 47.9403 11.8 47.9403 10.808C47.9403 9.832 48.0683 8.944 48.3243 8.144C48.5803 7.344 48.9483 6.664 49.4283 6.104C49.9243 5.528 50.5163 5.088 51.2043 4.784C51.9083 4.48 52.6923 4.328 53.5563 4.328C54.4203 4.328 55.1963 4.48 55.8843 4.784C56.5883 5.088 57.1803 5.528 57.6603 6.104C58.1563 6.664 58.5323 7.344 58.7883 8.144C59.0443 8.944 59.1723 9.832 59.1723 10.808C59.1723 11.8 59.0443 12.696 58.7883 13.496C58.5323 14.28 58.1563 14.96 57.6603 15.536C57.1803 16.096 56.5883 16.528 55.8843 16.832C55.1963 17.136 54.4203 17.288 53.5563 17.288ZM53.5563 15.632C54.6283 15.632 55.4923 15.312 56.1483 14.672C56.8043 14.032 57.1323 13.04 57.1323 11.696V9.92C57.1323 8.576 56.8043 7.584 56.1483 6.944C55.4923 6.304 54.6283 5.984 53.5563 5.984C52.4843 5.984 51.6203 6.304 50.9643 6.944C50.3083 7.584 49.9803 8.576 49.9803 9.92V11.696C49.9803 13.04 50.3083 14.032 50.9643 14.672C51.6203 15.312 52.4843 15.632 53.5563 15.632ZM60.9149 4.616H62.8349V9.8H65.4749L68.8109 4.616H70.8029L67.7789 9.32C67.5069 9.736 67.2669 10.032 67.0589 10.208C66.8509 10.368 66.6029 10.488 66.3149 10.568V10.664C66.6349 10.712 66.9069 10.824 67.1309 11C67.3549 11.16 67.5869 11.448 67.8269 11.864L69.8429 15.368H71.2349V17H69.8429C69.4269 17 69.0669 16.888 68.7629 16.664C68.4589 16.44 68.1549 16.072 67.8509 15.56L65.4749 11.432H62.8349V17H60.9149V4.616ZM77.5375 17.288C76.6735 17.288 75.8895 17.136 75.1855 16.832C74.4975 16.528 73.9055 16.096 73.4095 15.536C72.9295 14.96 72.5615 14.28 72.3055 13.496C72.0495 12.696 71.9215 11.8 71.9215 10.808C71.9215 9.832 72.0495 8.944 72.3055 8.144C72.5615 7.344 72.9295 6.664 73.4095 6.104C73.9055 5.528 74.4975 5.088 75.1855 4.784C75.8895 4.48 76.6735 4.328 77.5375 4.328C78.4015 4.328 79.1775 4.48 79.8655 4.784C80.5695 5.088 81.1615 5.528 81.6415 6.104C82.1375 6.664 82.5135 7.344 82.7695 8.144C83.0255 8.944 83.1535 9.832 83.1535 10.808C83.1535 11.8 83.0255 12.696 82.7695 13.496C82.5135 14.28 82.1375 14.96 81.6415 15.536C81.1615 16.096 80.5695 16.528 79.8655 16.832C79.1775 17.136 78.4015 17.288 77.5375 17.288ZM77.5375 15.632C78.6095 15.632 79.4735 15.312 80.1295 14.672C80.7855 14.032 81.1135 13.04 81.1135 11.696V9.92C81.1135 8.576 80.7855 7.584 80.1295 6.944C79.4735 6.304 78.6095 5.984 77.5375 5.984C76.4655 5.984 75.6015 6.304 74.9455 6.944C74.2895 7.584 73.9615 8.576 73.9615 9.92V11.696C73.9615 13.04 74.2895 14.032 74.9455 14.672C75.6015 15.312 76.4655 15.632 77.5375 15.632ZM82.9521 15.368H84.4881C84.7281 15.064 84.9361 14.704 85.1121 14.288C85.3041 13.872 85.4561 13.376 85.5681 12.8C85.6961 12.224 85.7921 11.56 85.8561 10.808C85.9201 10.04 85.9521 9.152 85.9521 8.144V4.616H94.1841V17H92.2641V6.248H87.8241V8.192C87.8241 10.432 87.6561 12.192 87.3201 13.472C87.0001 14.736 86.5681 15.64 86.0241 16.184C85.7201 16.488 85.3841 16.704 85.0161 16.832C84.6481 16.944 84.2081 17 83.6961 17H82.9521V15.368ZM114.517 2V17H112.501V2H106.909V0.248H120.109V2H114.517ZM130.18 17C129.428 17 128.892 16.808 128.572 16.424C128.252 16.04 128.052 15.56 127.972 14.984H127.852C127.58 15.704 127.14 16.272 126.532 16.688C125.94 17.088 125.14 17.288 124.132 17.288C122.836 17.288 121.804 16.952 121.036 16.28C120.268 15.608 119.884 14.688 119.884 13.52C119.884 12.368 120.3 11.48 121.132 10.856C121.98 10.232 123.34 9.92 125.212 9.92H127.852V8.696C127.852 7.784 127.596 7.104 127.084 6.656C126.572 6.192 125.844 5.96 124.9 5.96C124.068 5.96 123.388 6.128 122.86 6.464C122.332 6.784 121.908 7.224 121.588 7.784L120.292 6.824C120.452 6.504 120.668 6.192 120.94 5.888C121.212 5.584 121.548 5.32 121.948 5.096C122.348 4.856 122.804 4.672 123.316 4.544C123.828 4.4 124.396 4.328 125.02 4.328C126.476 4.328 127.628 4.696 128.476 5.432C129.34 6.168 129.772 7.192 129.772 8.504V15.32H131.5V17H130.18ZM124.468 15.68C124.964 15.68 125.412 15.624 125.812 15.512C126.228 15.384 126.588 15.224 126.892 15.032C127.196 14.824 127.428 14.584 127.588 14.312C127.764 14.024 127.852 13.72 127.852 13.4V11.36H125.212C124.06 11.36 123.22 11.52 122.692 11.84C122.164 12.16 121.9 12.624 121.9 13.232V13.736C121.9 14.376 122.124 14.864 122.572 15.2C123.036 15.52 123.668 15.68 124.468 15.68ZM132.571 4.616H134.491V6.632H134.587C135.387 5.096 136.659 4.328 138.403 4.328C139.923 4.328 141.107 4.896 141.955 6.032C142.819 7.168 143.251 8.76 143.251 10.808C143.251 12.856 142.819 14.448 141.955 15.584C141.107 16.72 139.923 17.288 138.403 17.288C136.659 17.288 135.387 16.52 134.587 14.984H134.491V21.8H132.571V4.616ZM137.659 15.584C138.779 15.584 139.643 15.248 140.251 14.576C140.875 13.888 141.187 12.984 141.187 11.864V9.752C141.187 8.632 140.875 7.736 140.251 7.064C139.643 6.376 138.779 6.032 137.659 6.032C137.227 6.032 136.819 6.088 136.435 6.2C136.051 6.312 135.715 6.48 135.427 6.704C135.139 6.912 134.907 7.176 134.731 7.496C134.571 7.8 134.491 8.16 134.491 8.576V13.04C134.491 13.456 134.571 13.824 134.731 14.144C134.907 14.448 135.139 14.712 135.427 14.936C135.715 15.144 136.051 15.304 136.435 15.416C136.819 15.528 137.227 15.584 137.659 15.584ZM144.561 4.616H146.481V9.8H152.481V4.616H154.401V17H152.481V11.432H146.481V17H144.561V4.616ZM161.472 17.288C160.608 17.288 159.824 17.136 159.12 16.832C158.432 16.528 157.84 16.096 157.344 15.536C156.864 14.96 156.496 14.28 156.24 13.496C155.984 12.696 155.856 11.8 155.856 10.808C155.856 9.832 155.984 8.944 156.24 8.144C156.496 7.344 156.864 6.664 157.344 6.104C157.84 5.528 158.432 5.088 159.12 4.784C159.824 4.48 160.608 4.328 161.472 4.328C162.336 4.328 163.112 4.48 163.8 4.784C164.504 5.088 165.096 5.528 165.576 6.104C166.072 6.664 166.448 7.344 166.704 8.144C166.96 8.944 167.088 9.832 167.088 10.808C167.088 11.8 166.96 12.696 166.704 13.496C166.448 14.28 166.072 14.96 165.576 15.536C165.096 16.096 164.504 16.528 163.8 16.832C163.112 17.136 162.336 17.288 161.472 17.288ZM161.472 15.632C162.544 15.632 163.408 15.312 164.064 14.672C164.72 14.032 165.048 13.04 165.048 11.696V9.92C165.048 8.576 164.72 7.584 164.064 6.944C163.408 6.304 162.544 5.984 161.472 5.984C160.4 5.984 159.536 6.304 158.88 6.944C158.224 7.584 157.896 8.576 157.896 9.92V11.696C157.896 13.04 158.224 14.032 158.88 14.672C159.536 15.312 160.4 15.632 161.472 15.632ZM168.83 4.616H175.142C176.15 4.616 176.942 4.904 177.518 5.48C178.094 6.04 178.382 6.8 178.382 7.76C178.382 9.312 177.574 10.184 175.958 10.376V10.472C176.918 10.552 177.63 10.856 178.094 11.384C178.574 11.896 178.814 12.536 178.814 13.304C178.814 13.8 178.734 14.272 178.574 14.72C178.414 15.168 178.182 15.56 177.878 15.896C177.574 16.232 177.198 16.504 176.75 16.712C176.302 16.904 175.79 17 175.214 17H168.83V4.616ZM174.734 15.464C175.39 15.464 175.894 15.304 176.246 14.984C176.598 14.664 176.774 14.224 176.774 13.664V13.112C176.774 12.552 176.598 12.12 176.246 11.816C175.91 11.496 175.454 11.336 174.878 11.336H170.75V15.464H174.734ZM174.638 9.824C175.166 9.824 175.582 9.688 175.886 9.416C176.19 9.144 176.342 8.76 176.342 8.264V7.736C176.342 7.24 176.19 6.856 175.886 6.584C175.582 6.296 175.166 6.152 174.638 6.152H170.75V9.824H174.638ZM185.885 17.288C184.989 17.288 184.189 17.136 183.485 16.832C182.797 16.512 182.213 16.072 181.733 15.512C181.253 14.952 180.885 14.272 180.629 13.472C180.389 12.672 180.269 11.784 180.269 10.808C180.269 9.832 180.397 8.944 180.653 8.144C180.909 7.344 181.277 6.664 181.757 6.104C182.237 5.528 182.821 5.088 183.509 4.784C184.197 4.48 184.981 4.328 185.861 4.328C187.061 4.328 188.037 4.592 188.789 5.12C189.541 5.648 190.093 6.336 190.445 7.184L188.909 8C188.685 7.36 188.309 6.864 187.781 6.512C187.269 6.16 186.629 5.984 185.861 5.984C185.301 5.984 184.797 6.08 184.349 6.272C183.917 6.448 183.549 6.704 183.245 7.04C182.941 7.376 182.709 7.776 182.549 8.24C182.405 8.704 182.333 9.208 182.333 9.752V11.864C182.333 12.408 182.405 12.912 182.549 13.376C182.709 13.84 182.941 14.24 183.245 14.576C183.549 14.912 183.925 15.176 184.373 15.368C184.821 15.544 185.333 15.632 185.909 15.632C186.741 15.632 187.429 15.44 187.973 15.056C188.517 14.672 188.949 14.144 189.269 13.472L190.637 14.408C190.269 15.24 189.693 15.928 188.909 16.472C188.141 17.016 187.133 17.288 185.885 17.288ZM192.812 4.616H194.732V9.8H197.372L200.708 4.616H202.7L199.676 9.32C199.404 9.736 199.164 10.032 198.956 10.208C198.748 10.368 198.5 10.488 198.212 10.568V10.664C198.532 10.712 198.804 10.824 199.028 11C199.252 11.16 199.484 11.448 199.724 11.864L201.74 15.368H203.132V17H201.74C201.324 17 200.964 16.888 200.66 16.664C200.356 16.44 200.052 16.072 199.748 15.56L197.372 11.432H194.732V17H192.812V4.616ZM209.434 17.288C208.57 17.288 207.786 17.136 207.082 16.832C206.394 16.528 205.802 16.096 205.306 15.536C204.826 14.96 204.458 14.28 204.202 13.496C203.946 12.696 203.818 11.8 203.818 10.808C203.818 9.832 203.946 8.944 204.202 8.144C204.458 7.344 204.826 6.664 205.306 6.104C205.802 5.528 206.394 5.088 207.082 4.784C207.786 4.48 208.57 4.328 209.434 4.328C210.298 4.328 211.074 4.48 211.762 4.784C212.466 5.088 213.058 5.528 213.538 6.104C214.034 6.664 214.41 7.344 214.666 8.144C214.922 8.944 215.05 9.832 215.05 10.808C215.05 11.8 214.922 12.696 214.666 13.496C214.41 14.28 214.034 14.96 213.538 15.536C213.058 16.096 212.466 16.528 211.762 16.832C211.074 17.136 210.298 17.288 209.434 17.288ZM209.434 15.632C210.506 15.632 211.37 15.312 212.026 14.672C212.682 14.032 213.01 13.04 213.01 11.696V9.92C213.01 8.576 212.682 7.584 212.026 6.944C211.37 6.304 210.506 5.984 209.434 5.984C208.362 5.984 207.498 6.304 206.842 6.944C206.186 7.584 205.858 8.576 205.858 9.92V11.696C205.858 13.04 206.186 14.032 206.842 14.672C207.498 15.312 208.362 15.632 209.434 15.632ZM217.465 4.616H226.345V6.248H219.385V17H217.465V4.616ZM233.416 17.288C232.552 17.288 231.768 17.136 231.064 16.832C230.376 16.528 229.784 16.096 229.288 15.536C228.808 14.96 228.44 14.28 228.184 13.496C227.928 12.696 227.8 11.8 227.8 10.808C227.8 9.832 227.928 8.944 228.184 8.144C228.44 7.344 228.808 6.664 229.288 6.104C229.784 5.528 230.376 5.088 231.064 4.784C231.768 4.48 232.552 4.328 233.416 4.328C234.28 4.328 235.056 4.48 235.744 4.784C236.448 5.088 237.04 5.528 237.52 6.104C238.016 6.664 238.392 7.344 238.648 8.144C238.904 8.944 239.032 9.832 239.032 10.808C239.032 11.8 238.904 12.696 238.648 13.496C238.392 14.28 238.016 14.96 237.52 15.536C237.04 16.096 236.448 16.528 235.744 16.832C235.056 17.136 234.28 17.288 233.416 17.288ZM233.416 15.632C234.488 15.632 235.352 15.312 236.008 14.672C236.664 14.032 236.992 13.04 236.992 11.696V9.92C236.992 8.576 236.664 7.584 236.008 6.944C235.352 6.304 234.488 5.984 233.416 5.984C232.344 5.984 231.48 6.304 230.824 6.944C230.168 7.584 229.84 8.576 229.84 9.92V11.696C229.84 13.04 230.168 14.032 230.824 14.672C231.48 15.312 232.344 15.632 233.416 15.632Z" fill="#424B58"/>
</svg>
