<svg width="361" height="175" viewBox="0 0 361 175" fill="none" xmlns="http://www.w3.org/2000/svg">
<path d="M28.9375 41H21.375L10.6875 22L8 25.1875V41H1.53125V0.21875H8V16.2188L20.6875 0.21875H29L14.7812 17.125L28.9375 41ZM60.6113 11.875V41H54.1425V17.7188H43.1425V32.375C43.1425 34.0625 42.8925 35.5104 42.3925 36.7188C41.8925 37.9062 41.2258 38.8646 40.3925 39.5938C39.58 40.3229 38.6113 40.8542 37.4863 41.1875C36.3821 41.5417 35.1946 41.7188 33.9238 41.7188C32.1738 41.7188 30.8925 41.4583 30.08 40.9375L30.8925 35.375C31.205 35.5417 31.5488 35.6667 31.9238 35.75C32.2779 35.8333 32.7467 35.875 33.33 35.875C35.5592 35.875 36.6738 34.7083 36.6738 32.375V11.875H60.6113ZM67.5663 11.875H74.035V31.9062L85.5038 11.875H93.6288V41H87.16V19.8125L75.0663 41H67.5663V11.875ZM126.646 41H120.177V28.9688H107.052V41H100.584V11.875H107.052V23.1562H120.177V11.875H126.646V41ZM133.601 11.875H140.07V31.9062L151.539 11.875H159.664V41H153.195V19.8125L141.101 41H133.601V11.875ZM166.619 11.875H173.087V24.0312C173.087 26.3021 173.515 27.875 174.369 28.75C175.223 29.625 176.462 30.0625 178.087 30.0625C180.462 30.0625 182.41 29.0938 183.931 27.1562C185.452 25.1979 186.212 22.5208 186.212 19.125V11.875H192.681V41H186.212V27.875C185.567 30.3958 184.369 32.3646 182.619 33.7812C180.869 35.1771 178.712 35.875 176.15 35.875C173.171 35.875 170.837 34.9062 169.15 32.9688C167.462 31.0312 166.619 28.0521 166.619 24.0312V11.875ZM204.042 28.9062C204.355 30.9062 205.303 32.5729 206.886 33.9062C208.49 35.2188 210.636 35.875 213.324 35.875C215.428 35.875 217.251 35.5521 218.792 34.9062C220.355 34.2396 221.699 33.3646 222.824 32.2812L226.136 36.8438C224.261 38.7188 222.272 40 220.167 40.6875C218.084 41.375 215.803 41.7188 213.324 41.7188C211.074 41.7188 208.98 41.3438 207.042 40.5938C205.105 39.8438 203.428 38.8021 202.011 37.4688C200.595 36.1146 199.48 34.5104 198.667 32.6562C197.876 30.8021 197.48 28.7396 197.48 26.4688C197.48 24.2604 197.845 22.2292 198.574 20.375C199.324 18.5 200.365 16.8854 201.699 15.5312C203.053 14.1562 204.667 13.0938 206.542 12.3438C208.417 11.5729 210.49 11.1875 212.761 11.1875C215.115 11.1875 217.251 11.5938 219.167 12.4062C221.084 13.1979 222.72 14.3542 224.074 15.875C225.449 17.3958 226.522 19.2604 227.292 21.4688C228.063 23.6562 228.449 26.1354 228.449 28.9062H204.042ZM221.136 23.2188C220.803 21.3438 219.834 19.8438 218.23 18.7188C216.626 17.5729 214.803 17 212.761 17C210.72 17 208.886 17.5729 207.261 18.7188C205.636 19.8438 204.657 21.3438 204.324 23.2188H221.136ZM259.154 36.8438C257.279 38.7188 255.3 40 253.216 40.6875C251.154 41.375 248.914 41.7188 246.497 41.7188C244.06 41.7188 241.841 41.3542 239.841 40.625C237.862 39.8958 236.175 38.875 234.779 37.5625C233.404 36.2292 232.341 34.625 231.591 32.75C230.862 30.875 230.497 28.7812 230.497 26.4688C230.497 24.2604 230.862 22.2188 231.591 20.3438C232.341 18.4479 233.341 16.8333 234.591 15.5C235.862 14.1458 237.352 13.0938 239.06 12.3438C240.768 11.5729 242.581 11.1875 244.497 11.1875C246.497 11.1875 248.237 11.6042 249.716 12.4375C251.195 13.2708 252.268 14.4896 252.935 16.0938V11.875H258.716V25.4375H252.935C252.935 22.875 252.227 20.8333 250.81 19.3125C249.414 17.7708 247.591 17 245.341 17C244.445 17 243.497 17.1875 242.497 17.5625C241.518 17.9167 240.612 18.4792 239.779 19.25C238.966 20.0208 238.289 21 237.747 22.1875C237.206 23.375 236.935 24.8021 236.935 26.4688C236.935 28.0938 237.195 29.5 237.716 30.6875C238.237 31.8542 238.914 32.8229 239.747 33.5938C240.602 34.3438 241.602 34.9167 242.747 35.3125C243.914 35.6875 245.112 35.875 246.341 35.875C248.445 35.875 250.268 35.5521 251.81 34.9062C253.372 34.2396 254.716 33.3646 255.841 32.2812L259.154 36.8438ZM293.203 41H284.828L275.078 29.2188L272.14 32.2188V41H265.671V11.875H272.14V24.2188L283.796 11.875H292.671L279.234 25.25L293.203 41ZM298.689 11.875H305.158V31.9062L316.626 11.875H324.751V41H318.283V19.8125L306.189 41H298.689V11.875ZM331.706 11.875H338.175V31.9062L349.644 11.875H357.769V41H351.3V19.8125L339.206 41H331.706V11.875ZM355.019 4.53125C352.185 7.34375 348.769 8.75 344.769 8.75C340.748 8.75 337.331 7.34375 334.519 4.53125L338.3 0.8125C340.258 2.77083 342.415 3.75 344.769 3.75C347.123 3.75 349.279 2.77083 351.237 0.8125L355.019 4.53125ZM27.5938 102H21.125V78.7188H8V102H1.53125V72.875H27.5938V102ZM34.5488 72.875H41.0175V75.5C42.2467 74.3958 43.4863 73.5729 44.7363 73.0312C46.0071 72.4688 47.455 72.1875 49.08 72.1875C50.955 72.1875 52.6946 72.5729 54.2988 73.3438C55.9029 74.0938 57.2779 75.1458 58.4238 76.5C59.5696 77.8333 60.4758 79.4479 61.1425 81.3438C61.8092 83.2188 62.1425 85.2604 62.1425 87.4688C62.1425 89.6979 61.8092 91.75 61.1425 93.625C60.4758 95.5 59.5696 97.1146 58.4238 98.4688C57.2779 99.8021 55.9029 100.844 54.2988 101.594C52.6946 102.344 50.955 102.719 49.08 102.719C47.455 102.719 46.0071 102.427 44.7363 101.844C43.4863 101.26 42.2467 100.417 41.0175 99.3125V113.656H34.5488V72.875ZM41.0175 94.1875C41.7883 95.0417 42.7675 95.7083 43.955 96.1875C45.1633 96.6458 46.3196 96.875 47.4238 96.875C49.8613 96.875 51.8404 96.0104 53.3613 94.2812C54.9029 92.5521 55.6738 90.2812 55.6738 87.4688C55.6738 84.6562 54.9029 82.375 53.3613 80.625C51.8404 78.875 49.8613 78 47.4238 78C46.3196 78 45.1633 78.2292 43.955 78.6875C42.7675 79.125 41.7883 79.7708 41.0175 80.625V94.1875ZM95.91 87.4688C95.91 89.7396 95.5454 91.8021 94.8163 93.6562C94.1079 95.5104 93.0767 97.1146 91.7225 98.4688C90.3892 99.8021 88.785 100.844 86.91 101.594C85.035 102.344 82.9413 102.719 80.6288 102.719C78.3579 102.719 76.285 102.344 74.41 101.594C72.535 100.844 70.9204 99.8021 69.5663 98.4688C68.2329 97.1146 67.2017 95.5104 66.4725 93.6562C65.7642 91.8021 65.41 89.7396 65.41 87.4688C65.41 85.2604 65.7642 83.2188 66.4725 81.3438C67.2017 79.4479 68.2329 77.8229 69.5663 76.4688C70.9204 75.0938 72.535 74.0417 74.41 73.3125C76.285 72.5625 78.3579 72.1875 80.6288 72.1875C82.9413 72.1875 85.035 72.5625 86.91 73.3125C88.785 74.0417 90.3892 75.0938 91.7225 76.4688C93.0767 77.8229 94.1079 79.4479 94.8163 81.3438C95.5454 83.2188 95.91 85.2604 95.91 87.4688ZM89.4725 87.4688C89.4725 86.1562 89.2642 84.9167 88.8475 83.75C88.4517 82.5625 87.8683 81.5521 87.0975 80.7188C86.3267 79.8854 85.3892 79.2292 84.285 78.75C83.2017 78.25 81.9829 78 80.6288 78C79.2538 78 78.0246 78.25 76.9413 78.75C75.8579 79.2292 74.9413 79.8854 74.1913 80.7188C73.4413 81.5521 72.8579 82.5625 72.4413 83.75C72.0454 84.9167 71.8475 86.1562 71.8475 87.4688C71.8475 88.8438 72.0454 90.0938 72.4413 91.2188C72.8579 92.3438 73.4413 93.3333 74.1913 94.1875C74.9413 95.0417 75.8579 95.7083 76.9413 96.1875C78.0246 96.6458 79.2538 96.875 80.6288 96.875C81.9829 96.875 83.2017 96.6458 84.285 96.1875C85.3892 95.7083 86.3267 95.0417 87.0975 94.1875C87.8683 93.3333 88.4517 92.3438 88.8475 91.2188C89.2642 90.0938 89.4725 88.8438 89.4725 87.4688ZM128.115 87.7188H122.334V78.7188H116.834V96.1875H123.302V102H103.927V96.1875H110.365V78.7188H104.802V87.7188H99.0525V72.875H128.115V87.7188ZM161.945 87.4688C161.945 89.7396 161.58 91.8021 160.851 93.6562C160.143 95.5104 159.112 97.1146 157.758 98.4688C156.424 99.8021 154.82 100.844 152.945 101.594C151.07 102.344 148.976 102.719 146.664 102.719C144.393 102.719 142.32 102.344 140.445 101.594C138.57 100.844 136.955 99.8021 135.601 98.4688C134.268 97.1146 133.237 95.5104 132.508 93.6562C131.799 91.8021 131.445 89.7396 131.445 87.4688C131.445 85.2604 131.799 83.2188 132.508 81.3438C133.237 79.4479 134.268 77.8229 135.601 76.4688C136.955 75.0938 138.57 74.0417 140.445 73.3125C142.32 72.5625 144.393 72.1875 146.664 72.1875C148.976 72.1875 151.07 72.5625 152.945 73.3125C154.82 74.0417 156.424 75.0938 157.758 76.4688C159.112 77.8229 160.143 79.4479 160.851 81.3438C161.58 83.2188 161.945 85.2604 161.945 87.4688ZM155.508 87.4688C155.508 86.1562 155.299 84.9167 154.883 83.75C154.487 82.5625 153.903 81.5521 153.133 80.7188C152.362 79.8854 151.424 79.2292 150.32 78.75C149.237 78.25 148.018 78 146.664 78C145.289 78 144.06 78.25 142.976 78.75C141.893 79.2292 140.976 79.8854 140.226 80.7188C139.476 81.5521 138.893 82.5625 138.476 83.75C138.08 84.9167 137.883 86.1562 137.883 87.4688C137.883 88.8438 138.08 90.0938 138.476 91.2188C138.893 92.3438 139.476 93.3333 140.226 94.1875C140.976 95.0417 141.893 95.7083 142.976 96.1875C144.06 96.6458 145.289 96.875 146.664 96.875C148.018 96.875 149.237 96.6458 150.32 96.1875C151.424 95.7083 152.362 95.0417 153.133 94.1875C153.903 93.3333 154.487 92.3438 154.883 91.2188C155.299 90.0938 155.508 88.8438 155.508 87.4688ZM194.15 102H185.775L176.025 90.2188L173.087 93.2188V102H166.619V72.875H173.087V85.2188L184.744 72.875H193.619L180.181 86.25L194.15 102ZM227.98 87.4688C227.98 89.7396 227.615 91.8021 226.886 93.6562C226.178 95.5104 225.147 97.1146 223.792 98.4688C222.459 99.8021 220.855 100.844 218.98 101.594C217.105 102.344 215.011 102.719 212.699 102.719C210.428 102.719 208.355 102.344 206.48 101.594C204.605 100.844 202.99 99.8021 201.636 98.4688C200.303 97.1146 199.272 95.5104 198.542 93.6562C197.834 91.8021 197.48 89.7396 197.48 87.4688C197.48 85.2604 197.834 83.2188 198.542 81.3438C199.272 79.4479 200.303 77.8229 201.636 76.4688C202.99 75.0938 204.605 74.0417 206.48 73.3125C208.355 72.5625 210.428 72.1875 212.699 72.1875C215.011 72.1875 217.105 72.5625 218.98 73.3125C220.855 74.0417 222.459 75.0938 223.792 76.4688C225.147 77.8229 226.178 79.4479 226.886 81.3438C227.615 83.2188 227.98 85.2604 227.98 87.4688ZM221.542 87.4688C221.542 86.1562 221.334 84.9167 220.917 83.75C220.522 82.5625 219.938 81.5521 219.167 80.7188C218.397 79.8854 217.459 79.2292 216.355 78.75C215.272 78.25 214.053 78 212.699 78C211.324 78 210.095 78.25 209.011 78.75C207.928 79.2292 207.011 79.8854 206.261 80.7188C205.511 81.5521 204.928 82.5625 204.511 83.75C204.115 84.9167 203.917 86.1562 203.917 87.4688C203.917 88.8438 204.115 90.0938 204.511 91.2188C204.928 92.3438 205.511 93.3333 206.261 94.1875C207.011 95.0417 207.928 95.7083 209.011 96.1875C210.095 96.6458 211.324 96.875 212.699 96.875C214.053 96.875 215.272 96.6458 216.355 96.1875C217.459 95.7083 218.397 95.0417 219.167 94.1875C219.938 93.3333 220.522 92.3438 220.917 91.2188C221.334 90.0938 221.542 88.8438 221.542 87.4688ZM258.716 72.875V102H252.247V78.7188H241.247V93.375C241.247 95.0625 240.997 96.5104 240.497 97.7188C239.997 98.9062 239.331 99.8646 238.497 100.594C237.685 101.323 236.716 101.854 235.591 102.188C234.487 102.542 233.3 102.719 232.029 102.719C230.279 102.719 228.997 102.458 228.185 101.938L228.997 96.375C229.31 96.5417 229.654 96.6667 230.029 96.75C230.383 96.8333 230.852 96.875 231.435 96.875C233.664 96.875 234.779 95.7083 234.779 93.375V72.875H258.716ZM29.0625 137.094H23.2812V128.062H17.7812V157.188H24.25V163H4.875V157.188H11.3125V128.062H5.75V137.094H0V122.219H29.0625V137.094ZM32.8925 154.625C32.8925 152.917 33.3508 151.427 34.2675 150.156C35.1842 148.865 36.3821 147.792 37.8613 146.938C39.3613 146.083 41.0696 145.448 42.9863 145.031C44.9238 144.594 46.8925 144.375 48.8925 144.375C49.9967 144.375 50.9446 144.396 51.7363 144.438C52.5279 144.479 53.33 144.542 54.1425 144.625V143.469C54.1425 141.948 53.5488 140.812 52.3613 140.062C51.1946 139.312 49.6529 138.938 47.7363 138.938C45.9863 138.938 44.205 139.188 42.3925 139.688C40.58 140.167 38.8613 140.875 37.2363 141.812L34.6113 136.75C36.5279 135.646 38.58 134.781 40.7675 134.156C42.9758 133.51 45.2988 133.188 47.7363 133.188C49.3196 133.188 50.8717 133.365 52.3925 133.719C53.9342 134.073 55.3092 134.656 56.5175 135.469C57.7467 136.281 58.7258 137.344 59.455 138.656C60.1842 139.948 60.5488 141.552 60.5488 143.469V163H54.1425V158.719C53.1217 160.302 51.6113 161.531 49.6113 162.406C47.6321 163.281 45.4967 163.719 43.205 163.719C41.7883 163.719 40.4446 163.521 39.1738 163.125C37.9238 162.75 36.8404 162.177 35.9238 161.406C35.0071 160.635 34.2675 159.688 33.705 158.562C33.1633 157.417 32.8925 156.104 32.8925 154.625ZM44.8613 157.938C46.1321 157.938 47.3196 157.781 48.4238 157.469C49.5488 157.135 50.5383 156.688 51.3925 156.125C52.2467 155.542 52.9133 154.844 53.3925 154.031C53.8925 153.219 54.1425 152.323 54.1425 151.344V150.25C53.1217 150.083 52.1633 149.99 51.2675 149.969C50.3717 149.948 49.58 149.938 48.8925 149.938C45.7258 149.938 43.33 150.354 41.705 151.188C40.1008 152.021 39.2988 153.052 39.2988 154.281C39.2988 156.719 41.1529 157.938 44.8613 157.938ZM67.5663 133.875H74.035V136.5C75.2642 135.396 76.5038 134.573 77.7538 134.031C79.0246 133.469 80.4725 133.188 82.0975 133.188C83.9725 133.188 85.7121 133.573 87.3163 134.344C88.9204 135.094 90.2954 136.146 91.4413 137.5C92.5871 138.833 93.4933 140.448 94.16 142.344C94.8267 144.219 95.16 146.26 95.16 148.469C95.16 150.698 94.8267 152.75 94.16 154.625C93.4933 156.5 92.5871 158.115 91.4413 159.469C90.2954 160.802 88.9204 161.844 87.3163 162.594C85.7121 163.344 83.9725 163.719 82.0975 163.719C80.4725 163.719 79.0246 163.427 77.7538 162.844C76.5038 162.26 75.2642 161.417 74.035 160.312V174.656H67.5663V133.875ZM74.035 155.188C74.8058 156.042 75.785 156.708 76.9725 157.188C78.1808 157.646 79.3371 157.875 80.4413 157.875C82.8788 157.875 84.8579 157.01 86.3788 155.281C87.9204 153.552 88.6913 151.281 88.6913 148.469C88.6913 145.656 87.9204 143.375 86.3788 141.625C84.8579 139.875 82.8788 139 80.4413 139C79.3371 139 78.1808 139.229 76.9725 139.688C75.785 140.125 74.8058 140.771 74.035 141.625V155.188ZM126.646 163H120.177V150.969H107.052V163H100.584V133.875H107.052V145.156H120.177V133.875H126.646V163ZM161.945 148.469C161.945 150.74 161.58 152.802 160.851 154.656C160.143 156.51 159.112 158.115 157.758 159.469C156.424 160.802 154.82 161.844 152.945 162.594C151.07 163.344 148.976 163.719 146.664 163.719C144.393 163.719 142.32 163.344 140.445 162.594C138.57 161.844 136.955 160.802 135.601 159.469C134.268 158.115 133.237 156.51 132.508 154.656C131.799 152.802 131.445 150.74 131.445 148.469C131.445 146.26 131.799 144.219 132.508 142.344C133.237 140.448 134.268 138.823 135.601 137.469C136.955 136.094 138.57 135.042 140.445 134.312C142.32 133.562 144.393 133.188 146.664 133.188C148.976 133.188 151.07 133.562 152.945 134.312C154.82 135.042 156.424 136.094 157.758 137.469C159.112 138.823 160.143 140.448 160.851 142.344C161.58 144.219 161.945 146.26 161.945 148.469ZM155.508 148.469C155.508 147.156 155.299 145.917 154.883 144.75C154.487 143.562 153.903 142.552 153.133 141.719C152.362 140.885 151.424 140.229 150.32 139.75C149.237 139.25 148.018 139 146.664 139C145.289 139 144.06 139.25 142.976 139.75C141.893 140.229 140.976 140.885 140.226 141.719C139.476 142.552 138.893 143.562 138.476 144.75C138.08 145.917 137.883 147.156 137.883 148.469C137.883 149.844 138.08 151.094 138.476 152.219C138.893 153.344 139.476 154.333 140.226 155.188C140.976 156.042 141.893 156.708 142.976 157.188C144.06 157.646 145.289 157.875 146.664 157.875C148.018 157.875 149.237 157.646 150.32 157.188C151.424 156.708 152.362 156.042 153.133 155.188C153.903 154.333 154.487 153.344 154.883 152.219C155.299 151.094 155.508 149.844 155.508 148.469ZM194.15 155C194.15 157.646 193.171 159.646 191.212 161C189.275 162.333 186.494 163 182.869 163H166.619V133.875H181.712C183.046 133.875 184.369 133.979 185.681 134.188C187.015 134.375 188.202 134.75 189.244 135.312C190.285 135.854 191.129 136.625 191.775 137.625C192.421 138.625 192.744 139.917 192.744 141.5C192.744 142.958 192.285 144.271 191.369 145.438C190.452 146.604 189.035 147.469 187.119 148.031C189.494 148.365 191.254 149.135 192.4 150.344C193.567 151.531 194.15 153.083 194.15 155ZM186.337 142.25C186.337 141.625 186.202 141.125 185.931 140.75C185.681 140.354 185.337 140.052 184.9 139.844C184.483 139.615 183.994 139.469 183.431 139.406C182.89 139.344 182.348 139.312 181.806 139.312H173.087V145.156H181.806C182.348 145.156 182.89 145.125 183.431 145.062C183.994 144.979 184.483 144.833 184.9 144.625C185.337 144.417 185.681 144.125 185.931 143.75C186.202 143.354 186.337 142.854 186.337 142.25ZM187.744 154.031C187.744 153.01 187.317 152.25 186.462 151.75C185.608 151.229 184.41 150.969 182.869 150.969H173.087V157.188H182.869C184.41 157.188 185.608 156.927 186.462 156.406C187.317 155.885 187.744 155.094 187.744 154.031ZM226.136 158.844C224.261 160.719 222.282 162 220.199 162.688C218.136 163.375 215.897 163.719 213.48 163.719C211.042 163.719 208.824 163.354 206.824 162.625C204.845 161.896 203.157 160.875 201.761 159.562C200.386 158.229 199.324 156.625 198.574 154.75C197.845 152.875 197.48 150.781 197.48 148.469C197.48 146.26 197.845 144.219 198.574 142.344C199.324 140.448 200.324 138.833 201.574 137.5C202.845 136.146 204.334 135.094 206.042 134.344C207.751 133.573 209.563 133.188 211.48 133.188C213.48 133.188 215.22 133.604 216.699 134.438C218.178 135.271 219.251 136.49 219.917 138.094V133.875H225.699V147.438H219.917C219.917 144.875 219.209 142.833 217.792 141.312C216.397 139.771 214.574 139 212.324 139C211.428 139 210.48 139.188 209.48 139.562C208.501 139.917 207.595 140.479 206.761 141.25C205.949 142.021 205.272 143 204.73 144.188C204.188 145.375 203.917 146.802 203.917 148.469C203.917 150.094 204.178 151.5 204.699 152.688C205.22 153.854 205.897 154.823 206.73 155.594C207.584 156.344 208.584 156.917 209.73 157.312C210.897 157.688 212.095 157.875 213.324 157.875C215.428 157.875 217.251 157.552 218.792 156.906C220.355 156.24 221.699 155.365 222.824 154.281L226.136 158.844ZM260.185 163H251.81L242.06 151.219L239.122 154.219V163H232.654V133.875H239.122V146.219L250.779 133.875H259.654L246.216 147.25L260.185 163ZM294.015 148.469C294.015 150.74 293.65 152.802 292.921 154.656C292.213 156.51 291.182 158.115 289.828 159.469C288.494 160.802 286.89 161.844 285.015 162.594C283.14 163.344 281.046 163.719 278.734 163.719C276.463 163.719 274.39 163.344 272.515 162.594C270.64 161.844 269.025 160.802 267.671 159.469C266.338 158.115 265.307 156.51 264.578 154.656C263.869 152.802 263.515 150.74 263.515 148.469C263.515 146.26 263.869 144.219 264.578 142.344C265.307 140.448 266.338 138.823 267.671 137.469C269.025 136.094 270.64 135.042 272.515 134.312C274.39 133.562 276.463 133.188 278.734 133.188C281.046 133.188 283.14 133.562 285.015 134.312C286.89 135.042 288.494 136.094 289.828 137.469C291.182 138.823 292.213 140.448 292.921 142.344C293.65 144.219 294.015 146.26 294.015 148.469ZM287.578 148.469C287.578 147.156 287.369 145.917 286.953 144.75C286.557 143.562 285.973 142.552 285.203 141.719C284.432 140.885 283.494 140.229 282.39 139.75C281.307 139.25 280.088 139 278.734 139C277.359 139 276.13 139.25 275.046 139.75C273.963 140.229 273.046 140.885 272.296 141.719C271.546 142.552 270.963 143.562 270.546 144.75C270.15 145.917 269.953 147.156 269.953 148.469C269.953 149.844 270.15 151.094 270.546 152.219C270.963 153.344 271.546 154.333 272.296 155.188C273.046 156.042 273.963 156.708 275.046 157.188C276.13 157.646 277.359 157.875 278.734 157.875C280.088 157.875 281.307 157.646 282.39 157.188C283.494 156.708 284.432 156.042 285.203 155.188C285.973 154.333 286.557 153.344 286.953 152.219C287.369 151.094 287.578 149.844 287.578 148.469ZM298.689 133.875H326.283V139.312H305.158V163H298.689V133.875ZM360.05 148.469C360.05 150.74 359.685 152.802 358.956 154.656C358.248 156.51 357.217 158.115 355.862 159.469C354.529 160.802 352.925 161.844 351.05 162.594C349.175 163.344 347.081 163.719 344.769 163.719C342.498 163.719 340.425 163.344 338.55 162.594C336.675 161.844 335.06 160.802 333.706 159.469C332.373 158.115 331.342 156.51 330.612 154.656C329.904 152.802 329.55 150.74 329.55 148.469C329.55 146.26 329.904 144.219 330.612 142.344C331.342 140.448 332.373 138.823 333.706 137.469C335.06 136.094 336.675 135.042 338.55 134.312C340.425 133.562 342.498 133.188 344.769 133.188C347.081 133.188 349.175 133.562 351.05 134.312C352.925 135.042 354.529 136.094 355.862 137.469C357.217 138.823 358.248 140.448 358.956 142.344C359.685 144.219 360.05 146.26 360.05 148.469ZM353.612 148.469C353.612 147.156 353.404 145.917 352.987 144.75C352.592 143.562 352.008 142.552 351.237 141.719C350.467 140.885 349.529 140.229 348.425 139.75C347.342 139.25 346.123 139 344.769 139C343.394 139 342.165 139.25 341.081 139.75C339.998 140.229 339.081 140.885 338.331 141.719C337.581 142.552 336.998 143.562 336.581 144.75C336.185 145.917 335.987 147.156 335.987 148.469C335.987 149.844 336.185 151.094 336.581 152.219C336.998 153.344 337.581 154.333 338.331 155.188C339.081 156.042 339.998 156.708 341.081 157.188C342.165 157.646 343.394 157.875 344.769 157.875C346.123 157.875 347.342 157.646 348.425 157.188C349.529 156.708 350.467 156.042 351.237 155.188C352.008 154.333 352.592 153.344 352.987 152.219C353.404 151.094 353.612 149.844 353.612 148.469Z" fill="white"/>
</svg>
